<svg width="24" height="21" viewBox="0 0 24 21" fill="none" xmlns="http://www.w3.org/2000/svg">
<path d="M20.4119 3.21681C19.9011 2.70581 19.2947 2.30045 18.6273 2.02389C17.9598 1.74733 17.2444 1.60498 16.5219 1.60498C15.7994 1.60498 15.084 1.74733 14.4165 2.02389C13.7491 2.30045 13.1427 2.70581 12.6319 3.21681L11.5719 4.27681L10.5119 3.21681C9.4802 2.18511 8.08093 1.60552 6.6219 1.60552C5.16286 1.60552 3.76359 2.18511 2.7319 3.21681C1.7002 4.2485 1.12061 5.64777 1.12061 7.10681C1.12061 8.56584 1.7002 9.96511 2.7319 10.9968L3.7919 12.0568L11.5719 19.8368L19.3519 12.0568L20.4119 10.9968C20.9229 10.4861 21.3282 9.87962 21.6048 9.21216C21.8814 8.5447 22.0237 7.82929 22.0237 7.10681C22.0237 6.38432 21.8814 5.66891 21.6048 5.00145C21.3282 4.33399 20.9229 3.72756 20.4119 3.21681V3.21681Z" stroke="#25282B" stroke-width="2" stroke-linecap="round" stroke-linejoin="round"/>
</svg>
