<svg width="229" height="415" viewBox="0 0 229 415" fill="none" xmlns="http://www.w3.org/2000/svg">
<circle cx="115" cy="128.976" r="91" fill="white"/>
<path d="M84.536 54.3551C83.803 5.02405 83.894 3.39105 87.5 0.741054C89.365 -0.628946 92.992 -0.0319452 95 1.97605C96.923 3.89905 97.001 5.32006 97.015 38.7261C97.024 57.8391 97.361 73.9711 97.765 74.5761C100.75 79.0461 107.365 77.9021 108.398 72.7371C108.729 71.0811 109 54.718 109 36.3741V3.02205L111.451 1.41606C114.088 -0.311943 117.003 0.122056 119.494 2.61306C120.778 3.89706 121 9.27205 121 39.0471C121 72.6431 121.076 74.052 123 75.9761C125.81 78.786 131 78.3921 131 75.3691C131 74.6031 131.493 73.9761 132.095 73.9761C132.881 73.9761 132.989 64.4431 132.478 40.2261C131.766 6.49105 131.767 6.47505 133.956 3.72605C136.595 0.411055 140.787 0.0790563 143.278 2.98706C144.857 4.83106 145 9.08205 145 54.059C145 107.979 145.325 105.262 138.73 106.499C135.447 107.115 133.509 108.46 130.25 112.386C129.295 113.536 129 123.47 129 154.434C129 176.732 129.342 194.976 129.759 194.976C130.608 194.976 131.452 193.71 135.427 186.476C138.228 181.378 144.693 171.392 146.5 169.372C147.05 168.757 148.841 166.504 150.48 164.365C152.119 162.226 155.607 158.352 158.23 155.757C163.082 150.956 164.206 147.582 161.767 145.143C160.91 144.286 160.528 139.715 160.517 130.193C160.501 117.141 160.628 116.258 163.149 111.976C168.765 102.433 176.164 96.9761 183.486 96.9761C185.969 96.9761 188 96.5881 188 96.1151C188 95.6411 190.645 95.014 193.877 94.721C199.506 94.21 210 90.312 210 88.732C210 88.316 210.458 87.9761 211.017 87.9761C211.576 87.9761 213.974 85.951 216.345 83.4761C222.777 76.7631 227 77.3901 227 85.0581C227 86.6631 227.45 87.9761 228 87.9761C229.279 87.9761 229.345 112.187 228.077 116.405C227.569 118.094 226.621 121.951 225.97 124.976C223.667 135.678 216.921 145.973 209.25 150.493C207.462 151.546 206 152.76 206 153.192C206 153.623 205.1 153.976 204 153.976C202.9 153.976 202 154.426 202 154.976C202 155.526 201.07 155.976 199.934 155.976C198.798 155.976 196.953 156.466 195.834 157.065C194.71 157.666 189.031 158.129 183.15 158.098C177.292 158.068 172.026 158.365 171.447 158.759C170.868 159.154 169.068 161.276 167.447 163.476C165.826 165.676 163.488 168.596 162.25 169.966C161.012 171.335 160 172.729 160 173.063C160 173.397 159.1 174.708 158 175.976C156.9 177.244 156 178.888 156 179.629C156 180.37 155.55 180.976 155 180.976C154.45 180.976 154 181.651 154 182.476C154 183.301 153.633 183.976 153.186 183.976C152.738 183.976 151.337 185.889 150.073 188.226C140.77 205.426 138 211.088 138 212.9C138 214.042 137.55 214.976 137 214.976C136.45 214.976 136 216.101 136 217.476C136 218.851 135.625 219.976 135.167 219.976C134.709 219.976 133.548 223.463 132.586 227.726C131.623 231.988 130.423 236.858 129.918 238.547C129.413 240.236 129 244.174 129 247.297C129 250.42 128.55 252.976 128 252.976C127.45 252.976 127 253.45 127 254.03C127 254.61 125.674 256.503 124.054 258.237C121.392 261.085 120.572 261.377 115.566 261.26C109.719 261.123 104 258.23 104 255.408C104 254.62 103.55 253.976 103 253.976C102.45 253.976 101.984 252.738 101.964 251.226C101.934 248.882 99.323 233.842 97.364 224.726C97.039 223.214 96.374 221.976 95.887 221.976C95.399 221.976 95 220.653 95 219.035C95 217.417 94.6 215.847 94.111 215.544C93.622 215.242 92.922 213.753 92.555 212.235C91.587 208.231 89.63 203.976 88.756 203.976C88.34 203.976 88 203.113 88 202.059C88 201.005 87.663 199.993 87.25 199.809C86.837 199.626 85.496 197.451 84.27 194.976C80.742 187.858 75.772 179.507 74.847 179.143C74.381 178.959 74 178.271 74 177.613C74 176.956 73.1 175.769 72 174.976C70.9 174.183 70 172.734 70 171.755C70 170.777 69.663 169.973 69.25 169.969C68.837 169.965 67.375 168.296 66 166.259C64.625 164.223 62.249 161.351 60.719 159.879C58.037 157.295 57.638 157.22 49.392 157.734C40.783 158.271 27 156.475 27 154.816C27 154.354 26.255 153.976 25.344 153.976C19.491 153.976 4 135.765 4 128.884C4 127.834 3.609 126.976 3.13 126.976C2.652 126.976 1.897 124.839 1.453 122.226C0.431003 116.205 0.432994 86.5421 1.45599 82.2261C2.13799 79.3511 2.61801 78.9761 5.61301 78.9761C7.47601 78.9761 9 79.426 9 79.9761C9 80.5261 9.87301 80.9761 10.941 80.9761C12.009 80.9761 13.125 81.369 13.422 81.85C14.256 83.2 24.818 87.9761 26.968 87.9761C28.021 87.9761 29.16 88.426 29.5 88.9761C29.84 89.5261 31.441 89.9761 33.059 89.9761C34.677 89.9761 36 90.426 36 90.9761C36 91.5261 36.845 91.9761 37.878 91.9761C39.657 91.9761 44.475 93.6641 50 96.2241C57.841 99.8571 68.055 113.431 68.016 120.167C68.007 121.647 68.45 123.136 69 123.476C69.55 123.816 70 125.642 70 127.535C70 129.428 69.55 130.976 69 130.976C68.45 130.976 68 133.451 68 136.476C68 139.501 67.55 141.976 67 141.976C66.45 141.976 66 143.281 66 144.876C66 147.083 67.495 149.311 72.25 154.192C75.688 157.72 79.625 162.079 81 163.878C82.375 165.677 84.063 167.753 84.75 168.491C85.438 169.229 86 170.109 86 170.447C86 171.034 87.034 172.411 89.75 175.439C90.438 176.206 91 177.315 91 177.905C91 178.494 91.374 178.976 91.83 178.976C92.287 178.976 94.373 182.351 96.467 186.476C98.561 190.601 100.662 193.976 101.137 193.976C101.612 193.976 102 175.747 102 153.467V112.958L99.142 109.967C97.081 107.81 94.979 106.798 91.602 106.335C88.823 105.954 86.58 105.039 86.085 104.085C85.627 103.2 84.93 80.8221 84.536 54.3551Z" fill="#4D9D80"/>
<path d="M66.5764 335.976H49.9962L32.4451 309.388V335.976H15.8649V283.098H32.4451L49.9962 310.135V283.098H66.5764V335.976Z" fill="#1D1D1D"/>
<path d="M118.654 293.853V335.976H102.074V329.553C100.78 331.545 99.037 333.163 96.8463 334.408C94.7053 335.652 92.1411 336.275 89.1536 336.275C84.324 336.275 80.5399 334.656 77.8014 331.42C75.1127 328.184 73.7684 323.802 73.7684 318.275V293.853H90.2739V316.184C90.2739 318.176 90.7967 319.769 91.8423 320.964C92.9377 322.109 94.3816 322.682 96.1741 322.682C98.0163 322.682 99.4603 322.109 100.506 320.964C101.551 319.769 102.074 318.176 102.074 316.184V293.853H118.654Z" fill="#1D1D1D"/>
<path d="M152.358 321.86V335.976H146.084C134.533 335.976 128.757 330.225 128.757 318.724V307.67H123.529V293.853H128.757V283.696H145.337V293.853H152.208V307.67H145.337V319.022C145.337 320.018 145.561 320.74 146.009 321.188C146.507 321.636 147.304 321.86 148.399 321.86H152.358Z" fill="#1D1D1D"/>
<path d="M175.252 301.621C176.945 299.181 179.011 297.239 181.451 295.795C183.891 294.301 186.43 293.554 189.069 293.554V311.255H184.364C181.227 311.255 178.912 311.803 177.418 312.898C175.974 313.993 175.252 315.935 175.252 318.724V335.976H158.672V293.853H175.252V301.621Z" fill="#1D1D1D"/>
<path d="M201.9 290.492C199.012 290.492 196.697 289.721 194.954 288.177C193.211 286.634 192.34 284.692 192.34 282.352C192.34 279.962 193.211 277.995 194.954 276.451C196.697 274.858 199.012 274.062 201.9 274.062C204.738 274.062 207.028 274.858 208.771 276.451C210.514 277.995 211.385 279.962 211.385 282.352C211.385 284.692 210.514 286.634 208.771 288.177C207.028 289.721 204.738 290.492 201.9 290.492ZM210.115 293.853V335.976H193.535V293.853H210.115Z" fill="#1D1D1D"/>
<path d="M64.6693 414.499C58.3459 414.499 53.1179 413.03 48.9853 410.092C44.9025 407.105 42.6868 402.748 42.3383 397.022H59.9641C60.2131 400.059 61.5574 401.578 63.9971 401.578C64.8934 401.578 65.6402 401.379 66.2377 400.981C66.885 400.532 67.2086 399.86 67.2086 398.964C67.2086 397.719 66.5364 396.724 65.1921 395.977C63.8478 395.18 61.7566 394.284 58.9185 393.288C55.5328 392.093 52.7196 390.923 50.479 389.778C48.2883 388.633 46.3962 386.965 44.8029 384.774C43.2096 382.583 42.4379 379.77 42.4877 376.334C42.4877 372.899 43.359 369.986 45.1017 367.596C46.8941 365.156 49.309 363.314 52.3462 362.069C55.4332 360.825 58.8936 360.202 62.7275 360.202C69.2002 360.202 74.3286 361.696 78.1127 364.683C81.9466 367.671 83.9631 371.878 84.1622 377.305H66.3124C66.2626 375.812 65.8892 374.741 65.1921 374.094C64.495 373.447 63.6486 373.123 62.6528 373.123C61.9557 373.123 61.3831 373.372 60.935 373.87C60.4869 374.318 60.2629 374.965 60.2629 375.812C60.2629 377.007 60.9101 378.002 62.2047 378.799C63.549 379.546 65.6651 380.467 68.553 381.562C71.8889 382.807 74.6274 384.002 76.7684 385.147C78.9592 386.292 80.8512 387.886 82.4445 389.927C84.0378 391.969 84.8344 394.533 84.8344 397.62C84.8344 400.856 84.0378 403.769 82.4445 406.358C80.8512 408.897 78.5359 410.889 75.4987 412.333C72.4615 413.777 68.8517 414.499 64.6693 414.499Z" fill="#1D1D1D"/>
<path d="M131.438 392.541C131.438 393.686 131.364 394.782 131.214 395.827H104.551C104.8 399.462 106.319 401.279 109.107 401.279C110.9 401.279 112.194 400.458 112.991 398.815H130.542C129.945 401.802 128.675 404.491 126.733 406.881C124.841 409.221 122.426 411.088 119.489 412.482C116.601 413.827 113.414 414.499 109.929 414.499C105.746 414.499 102.012 413.627 98.7259 411.885C95.4896 410.142 92.9503 407.653 91.108 404.416C89.3156 401.13 88.4193 397.296 88.4193 392.915C88.4193 388.533 89.3156 384.724 91.108 381.488C92.9503 378.201 95.4896 375.687 98.7259 373.944C102.012 372.202 105.746 371.33 109.929 371.33C114.111 371.33 117.821 372.202 121.057 373.944C124.343 375.637 126.882 378.077 128.675 381.264C130.517 384.45 131.438 388.209 131.438 392.541ZM114.634 388.583C114.634 387.189 114.186 386.143 113.29 385.446C112.393 384.699 111.273 384.326 109.929 384.326C106.991 384.326 105.273 385.745 104.775 388.583H114.634Z" fill="#1D1D1D"/>
<path d="M153.262 358.709V413.976H136.682V358.709H153.262Z" fill="#1D1D1D"/>
<path d="M185.023 368.866C184.127 368.766 183.505 368.716 183.156 368.716C181.912 368.716 180.966 368.965 180.318 369.463C179.671 369.911 179.223 370.708 178.974 371.853H185.023V385.67H178.825V413.976H162.244V385.67H157.763V371.853H162.244C162.344 366.376 164.062 362.144 167.398 359.157C170.783 356.119 175.513 354.601 181.588 354.601C182.285 354.601 183.43 354.651 185.023 354.75V368.866Z" fill="#1D1D1D"/>
</svg>
